<svg width="27" height="27" viewBox="0 0 27 27" fill="none" xmlns="http://www.w3.org/2000/svg">
<path d="M13.5 0C10.83 0 8.21987 0.791761 5.99981 2.27516C3.77974 3.75856 2.04942 5.86697 1.02763 8.33377C0.00584931 10.8006 -0.261496 13.515 0.259405 16.1337C0.780305 18.7525 2.06606 21.1579 3.95406 23.0459C5.84207 24.934 8.24754 26.2197 10.8663 26.7406C13.485 27.2615 16.1994 26.9942 18.6662 25.9724C21.133 24.9506 23.2414 23.2203 24.7248 21.0002C26.2082 18.7801 27 16.17 27 13.5C27 9.91958 25.5777 6.4858 23.0459 3.95406C20.5142 1.42232 17.0804 0 13.5 0V0ZM17.3404 8.78566C17.3404 9.03967 17.2338 9.14092 16.9851 9.14092C16.5073 9.14092 16.0295 9.14092 15.5534 9.16046C15.0774 9.18 14.818 9.39671 14.818 9.89408C14.8074 10.427 14.818 10.9492 14.818 11.4928H16.8626C17.1539 11.4928 17.2534 11.5922 17.2534 11.8853C17.2534 12.5959 17.2534 13.3099 17.2534 14.0276C17.2534 14.3171 17.161 14.4077 16.8679 14.4095H14.8003V20.1896C14.8003 20.4987 14.7043 20.5964 14.3988 20.5964H12.1749C11.9067 20.5964 11.8018 20.4916 11.8018 20.2234V14.4184H10.0362C9.75909 14.4184 9.65961 14.3171 9.65961 14.0382C9.65961 13.3194 9.65961 12.6012 9.65961 11.8836C9.65961 11.6064 9.76441 11.5016 10.038 11.5016H11.8018V9.94737C11.7809 9.2492 11.9484 8.55829 12.2868 7.94724C12.6385 7.33034 13.2021 6.86201 13.873 6.62921C14.3084 6.47079 14.7686 6.39139 15.2319 6.39474H16.978C17.2285 6.39474 17.3333 6.50487 17.3333 6.75C17.3422 7.43388 17.3422 8.11066 17.3404 8.78566Z" fill="#FBEBEB"/>
</svg>
