<svg width="13" height="13" viewBox="0 0 13 13" fill="none" xmlns="http://www.w3.org/2000/svg">
<path d="M12.5431 1.92818C12.4189 1.59159 12.2207 1.28693 11.9632 1.03685C11.7132 0.779358 11.4087 0.581192 11.0719 0.456978C10.7988 0.350891 10.3884 0.224617 9.63264 0.190216C8.81505 0.152931 8.56992 0.144897 6.50009 0.144897C4.43006 0.144897 4.18493 0.152725 3.36755 0.19001C2.61176 0.224617 2.20121 0.350891 1.92827 0.456978C1.59147 0.581192 1.2868 0.779358 1.03693 1.03685C0.779442 1.28693 0.581276 1.59138 0.456856 1.92818C0.350769 2.20133 0.224495 2.61188 0.190094 3.36767C0.152809 4.18505 0.144775 4.43018 0.144775 6.50021C0.144775 8.57004 0.152809 8.81517 0.190094 9.63276C0.224495 10.3885 0.350769 10.7989 0.456856 11.072C0.581276 11.4088 0.779236 11.7133 1.03673 11.9634C1.2868 12.2209 1.59126 12.419 1.92806 12.5432C2.20121 12.6495 2.61176 12.7758 3.36755 12.8102C4.18493 12.8475 4.42986 12.8553 6.49989 12.8553C8.57012 12.8553 8.81525 12.8475 9.63243 12.8102C10.3882 12.7758 10.7988 12.6495 11.0719 12.5432C11.748 12.2825 12.2823 11.7481 12.5431 11.072C12.6492 10.7989 12.7755 10.3885 12.8101 9.63276C12.8474 8.81517 12.8552 8.57004 12.8552 6.50021C12.8552 4.43018 12.8474 4.18505 12.8101 3.36767C12.7757 2.61188 12.6494 2.20133 12.5431 1.92818ZM6.50009 10.4806C4.30152 10.4806 2.51926 8.69858 2.51926 6.50001C2.51926 4.30144 4.30152 2.51939 6.50009 2.51939C8.69846 2.51939 10.4807 4.30144 10.4807 6.50001C10.4807 8.69858 8.69846 10.4806 6.50009 10.4806ZM10.6381 3.29227C10.1243 3.29227 9.70782 2.87576 9.70782 2.36201C9.70782 1.84826 10.1243 1.43174 10.6381 1.43174C11.1518 1.43174 11.5684 1.84826 11.5684 2.36201C11.5682 2.87576 11.1518 3.29227 10.6381 3.29227Z" fill="#FBEBEB"/>
</svg>
