<svg width="29" height="33" viewBox="0 0 29 33" fill="none" xmlns="http://www.w3.org/2000/svg">
<path d="M28.0835 11.1073C27.8638 10.8598 27.5493 10.7188 27.2186 10.7188H21.4374V7.25C21.4374 3.42397 18.3259 0.3125 14.4999 0.3125C10.6739 0.3125 7.56239 3.42397 7.56239 7.25V10.7188H1.78114C1.45045 10.7188 1.13595 10.8598 0.916263 11.1073C0.696575 11.3547 0.593669 11.6842 0.631825 12.0114L2.60092 28.5724C2.86223 30.9184 4.83827 32.6875 7.19817 32.6875H21.8016C24.1627 32.6875 26.1376 30.9184 26.3977 28.5817L28.368 12.0114C28.4061 11.6831 28.3032 11.3547 28.0835 11.1073ZM9.87489 7.25C9.87489 4.69931 11.9492 2.625 14.4999 2.625C17.0506 2.625 19.1249 4.69931 19.1249 7.25V10.7188H9.87489V7.25ZM8.71864 15.3438C8.08039 15.3438 7.56239 14.8258 7.56239 14.1875C7.56239 13.5492 8.08039 13.0312 8.71864 13.0312C9.35689 13.0312 9.87489 13.5492 9.87489 14.1875C9.87489 14.8258 9.35689 15.3438 8.71864 15.3438ZM20.2811 15.3438C19.6429 15.3438 19.1249 14.8258 19.1249 14.1875C19.1249 13.5492 19.6429 13.0312 20.2811 13.0312C20.9194 13.0312 21.4374 13.5492 21.4374 14.1875C21.4374 14.8258 20.9194 15.3438 20.2811 15.3438Z" fill="#2E3D80"/>
</svg>
