<svg width="16" height="26" viewBox="0 0 16 26" fill="none" xmlns="http://www.w3.org/2000/svg">
<path d="M14.0649 0.697933C14.4285 0.689935 14.7856 0.795354 15.0866 0.999697C15.3875 1.20404 15.6173 1.49721 15.744 1.83818C15.8706 2.17915 15.8879 2.55106 15.7935 2.90232C15.699 3.25358 15.4974 3.56653 15.2167 3.79792L4.50824 12.9717L15.2167 22.1423C15.4109 22.285 15.5735 22.4662 15.6943 22.6746C15.8152 22.883 15.8917 23.1142 15.9191 23.3536C15.9465 23.593 15.9241 23.8354 15.8535 24.0657C15.7828 24.2961 15.6654 24.5094 15.5085 24.6923C15.3516 24.8751 15.1586 25.0234 14.9417 25.1283C14.7247 25.2331 14.4885 25.292 14.2477 25.3013C14.007 25.3105 13.7669 25.2702 13.5425 25.1824C13.3181 25.0946 13.1143 24.9614 12.9438 24.7912L0.683534 14.3013C0.491001 14.137 0.336397 13.9331 0.230384 13.7032C0.124371 13.4734 0.0694723 13.2232 0.0694723 12.9701C0.0694723 12.717 0.124371 12.4668 0.230384 12.237C0.336397 12.0072 0.491001 11.803 0.683534 11.6387L12.9438 1.13877C13.2535 0.863675 13.6507 0.707276 14.0649 0.69753V0.697933Z" fill="white"/>
</svg>
