<svg width="38" height="24" viewBox="0 0 38 24" fill="none" xmlns="http://www.w3.org/2000/svg">
<path d="M37.7981 0H0V9.59182H37.7981V0Z" fill="black"/>
<path d="M37.7981 14.3881H0V23.9799H37.7981V14.3881Z" fill="black"/>
<path d="M6.79668 7.30267V5.0085C6.79668 4.66981 6.64623 4.42913 6.25509 4.42913C5.91662 4.42913 5.63837 4.65492 5.50281 4.85049V7.30267H4.54007V5.0085C4.54007 4.66981 4.38962 4.42913 3.99848 4.42913C3.66734 4.42913 3.3891 4.65492 3.2462 4.85049V7.30267H2.29102V3.66951H3.2462V4.13577C3.40421 3.92531 3.87802 3.57928 4.43473 3.57928C4.96877 3.57928 5.3148 3.8273 5.44258 4.23356C5.65326 3.9102 6.13463 3.57928 6.69134 3.57928C7.36095 3.57928 7.75964 3.93264 7.75964 4.67737V7.30267H6.79668Z" fill="white"/>
<path d="M8.6167 2.70638C8.6167 2.39057 8.8725 2.14233 9.18096 2.14233C9.49676 2.14233 9.75256 2.39057 9.75256 2.70638C9.75256 3.0224 9.49676 3.27797 9.18096 3.27797C8.8725 3.27797 8.6167 3.0224 8.6167 2.70638ZM8.70693 3.66934H9.66233V7.30249H8.70693V3.66934Z" fill="white"/>
<path d="M15.116 7.30267V5.0085C15.116 4.66981 14.9656 4.42913 14.5744 4.42913C14.236 4.42913 13.9577 4.65492 13.8224 4.85049V7.30267H12.8594V5.0085C12.8594 4.66981 12.709 4.42913 12.3178 4.42913C11.9869 4.42913 11.7084 4.65492 11.5655 4.85049V7.30267H10.6104V3.66951H11.5655V4.13577C11.7235 3.92531 12.1976 3.57928 12.7541 3.57928C13.2881 3.57928 13.6341 3.8273 13.7621 4.23356C13.9726 3.9102 14.454 3.57928 15.0107 3.57928C15.6803 3.57928 16.079 3.93264 16.079 4.67737V7.30267H15.116Z" fill="white"/>
<path d="M16.7932 5.48207C16.7932 4.4291 17.5755 3.57904 18.6738 3.57904C19.7645 3.57904 20.4939 4.39155 20.4939 5.57252V5.79809H17.7937C17.8613 6.2419 18.2224 6.6106 18.8394 6.6106C19.1478 6.6106 19.5688 6.48259 19.8021 6.25702C19.9737 6.5097 20.0592 6.63593 20.231 6.88884C19.8701 7.21976 19.2985 7.39288 18.7342 7.39288C17.6282 7.39288 16.7932 6.64816 16.7932 5.48207ZM18.6738 4.36132C18.0795 4.36132 17.8237 4.77513 17.7862 5.13604H19.5765C19.5465 4.79002 19.3058 4.36132 18.6738 4.36132Z" fill="white"/>
<path d="M4.78802 21.6908V21.2246C4.50222 21.5855 4.11108 21.7811 3.66727 21.7811C2.75698 21.7811 2.05737 21.089 2.05737 19.8705C2.05737 18.6895 2.74187 17.9675 3.66727 17.9675C4.09597 17.9675 4.50222 18.1479 4.78802 18.5239V16.6736H5.75098V21.6908H4.78802ZM4.78802 20.5174V19.2311C4.63023 18.9904 4.28398 18.8173 3.96818 18.8173C3.41903 18.8173 3.04278 19.2462 3.04278 19.8705C3.04278 20.5023 3.41903 20.931 3.96818 20.931C4.28398 20.931 4.63023 20.7581 4.78802 20.5174Z" fill="white"/>
<path d="M6.6084 17.0949C6.6084 16.7789 6.8642 16.5306 7.17244 16.5306C7.48846 16.5306 7.74426 16.7789 7.74426 17.0949C7.74426 17.4109 7.48846 17.6667 7.17244 17.6667C6.8642 17.6667 6.6084 17.4109 6.6084 17.0949ZM6.69863 18.0576H7.65381V21.691H6.69863V18.0576Z" fill="white"/>
<path d="M8.52642 22.6237C8.69799 22.3499 8.78377 22.213 8.95534 21.9392C9.24847 22.2552 9.63984 22.383 10.091 22.383C10.5499 22.383 11.0991 22.1872 11.0991 21.4502V21.0966C10.8133 21.4578 10.4221 21.6607 9.97075 21.6607C9.06802 21.6607 8.36841 21.0289 8.36841 19.8179C8.36841 18.6294 9.0529 17.9675 9.97075 17.9675C10.407 17.9675 10.8057 18.148 11.0991 18.524V18.0575H12.0542V21.4502C12.0542 22.8268 10.9864 23.1652 10.091 23.1652C9.47427 23.1652 8.98534 23.0223 8.52642 22.6237ZM11.0991 20.4044V19.2236C10.9335 18.9905 10.5877 18.8174 10.2792 18.8174C9.73006 18.8174 9.35381 19.1936 9.35381 19.8179C9.35381 20.4422 9.73006 20.8182 10.2792 20.8182C10.5877 20.8182 10.9335 20.6377 11.0991 20.4044Z" fill="white"/>
<path d="M12.9119 17.0949C12.9119 16.7789 13.1677 16.5306 13.4761 16.5306C13.7922 16.5306 14.0477 16.7789 14.0477 17.0949C14.0477 17.4109 13.7922 17.6667 13.4761 17.6667C13.1677 17.6667 12.9119 17.4109 12.9119 17.0949ZM13.0021 18.0576H13.9573V21.691H13.0021V18.0576Z" fill="white"/>
<path d="M15.1006 20.7808V18.8927H14.4988V18.0577H15.1006V17.0648H16.056V18.0577H16.7932V18.8927H16.056V20.525C16.056 20.7581 16.1762 20.9313 16.3869 20.9313C16.5298 20.9313 16.6654 20.8786 16.7178 20.8184C16.7992 21.1102 16.8398 21.2562 16.921 21.548C16.7781 21.676 16.5223 21.7811 16.1238 21.7811C15.4542 21.7811 15.1006 21.4353 15.1006 20.7808Z" fill="white"/>
<path d="M19.629 21.6909V21.3071C19.381 21.608 18.9521 21.7811 18.478 21.7811C17.8989 21.7811 17.2219 21.39 17.2219 20.5775C17.2219 19.7201 17.8989 19.4041 18.478 19.4041C18.9669 19.4041 19.3883 19.5621 19.629 19.8479V19.3889C19.629 19.0205 19.313 18.7798 18.8316 18.7798C18.448 18.7798 18.0871 18.9302 17.7862 19.2085C17.6355 18.9407 17.5604 18.8067 17.4099 18.5391C17.8537 18.1404 18.4253 17.9673 18.9972 17.9673C19.8321 17.9673 20.592 18.2982 20.592 19.3438V21.6909H19.629ZM19.629 20.8182V20.3668C19.471 20.1563 19.1705 20.0434 18.862 20.0434C18.4858 20.0434 18.1773 20.2466 18.1773 20.5926C18.1773 20.9386 18.4856 21.1342 18.862 21.1342C19.1703 21.1342 19.471 21.0288 19.629 20.8182Z" fill="white"/>
<path d="M22.4876 16.6736H21.5322V21.6908H22.4876V16.6736Z" fill="white"/>
</svg>
