<svg width="9" height="13" viewBox="0 0 9 13" fill="none" xmlns="http://www.w3.org/2000/svg">
<path d="M4.50012 13C4.21635 13 3.96224 12.8528 3.82041 12.6063C3.81891 12.6037 3.81746 12.6011 3.81602 12.5985L0.592372 6.69808C-0.177117 5.28964 -0.155052 3.6179 0.651405 2.22619C1.44037 0.86464 2.84173 0.0328174 4.40005 0.00102832C4.46663 -0.000342773 4.53356 -0.000342773 4.60008 0.00102832C6.15843 0.0328174 7.55979 0.86464 8.34878 2.22619C9.15523 3.6179 9.1773 5.28962 8.40781 6.69808L5.18416 12.5985C5.18272 12.6011 5.18127 12.6037 5.17977 12.6063C5.03797 12.8528 4.78388 13 4.50012 13ZM4.50009 0.812513C4.47219 0.812513 4.44436 0.812792 4.41658 0.813351C3.14454 0.8393 1.99977 1.51974 1.35437 2.63355C0.691497 3.77753 0.673165 5.15134 1.30537 6.30849L4.50009 12.156L7.69479 6.30852C8.32699 5.15134 8.30868 3.77753 7.64576 2.63355C7.00036 1.51977 5.85559 0.8393 4.58355 0.813351C4.55585 0.812792 4.52799 0.812513 4.50009 0.812513Z" fill="#2E3D80"/>
<path d="M4.5 5.89062C3.49197 5.89062 2.67188 5.07053 2.67188 4.0625C2.67188 3.05447 3.49197 2.23438 4.5 2.23438C5.50803 2.23438 6.32812 3.05447 6.32812 4.0625C6.32812 5.07053 5.50806 5.89062 4.5 5.89062ZM4.5 3.04688C3.93998 3.04688 3.48438 3.50248 3.48438 4.0625C3.48438 4.62252 3.93998 5.07812 4.5 5.07812C5.06002 5.07812 5.51562 4.62252 5.51562 4.0625C5.51562 3.50248 5.06002 3.04688 4.5 3.04688Z" fill="#2E3D80"/>
</svg>
