<svg width="16" height="26" viewBox="0 0 16 26" fill="none" xmlns="http://www.w3.org/2000/svg">
<path d="M1.93512 0.697933C1.57146 0.689935 1.21435 0.795354 0.913429 0.999697C0.612507 1.20404 0.382729 1.49721 0.256042 1.83818C0.129354 2.17915 0.112052 2.55106 0.20654 2.90232C0.301028 3.25358 0.502611 3.56653 0.783264 3.79792L11.4918 12.9717L0.783264 22.1423C0.589122 22.285 0.426533 22.4662 0.305679 22.6746C0.184825 22.883 0.108309 23.1142 0.0809229 23.3536C0.0535367 23.593 0.0758704 23.8354 0.146525 24.0657C0.21718 24.2961 0.334633 24.5094 0.491531 24.6923C0.648429 24.8751 0.84139 25.0234 1.05833 25.1283C1.27527 25.2331 1.51152 25.292 1.75228 25.3013C1.99304 25.3105 2.23312 25.2702 2.45749 25.1824C2.68186 25.0946 2.88569 24.9614 3.05621 24.7912L15.3165 14.3013C15.509 14.137 15.6636 13.9331 15.7696 13.7032C15.8756 13.4734 15.9305 13.2232 15.9305 12.9701C15.9305 12.717 15.8756 12.4668 15.7696 12.237C15.6636 12.0072 15.509 11.803 15.3165 11.6387L3.05621 1.13877C2.7465 0.863675 2.34925 0.707276 1.93512 0.69753V0.697933Z" fill="white"/>
</svg>
